<svg xmlns="http://www.w3.org/2000/svg" aria-hidden="true" style="position:absolute;width:0;height:0;overflow:hidden"><defs>
<symbol id="arrow" viewBox="0 0 58 32"><path stroke-width="2.909" d="m2.909 2.909 26.182 26.182L55.273 2.909"/></symbol>
<symbol id="calendar" viewBox="0 0 32 32"><path fill="#4a56e2" d="M12 14.667H9.333v2.667H12v-2.667zm5.333 0h-2.667v2.667h2.667v-2.667zm5.334 0H20v2.667h2.667v-2.667zm2.666-9.334H24V2.666h-2.667v2.667H10.666V2.666H7.999v2.667H6.666c-1.48 0-2.653 1.2-2.653 2.667L4 26.667a2.666 2.666 0 0 0 2.667 2.667h18.667c1.467 0 2.667-1.2 2.667-2.667V8c0-1.467-1.2-2.667-2.667-2.667zm0 21.334H6.666V12h18.667v14.667z" style="fill:var(--color1, #4a56e2)"/></symbol>
<symbol id="close" viewBox="0 0 32 32"><path stroke-width="1.778" d="m1.778 1.778 28.444 28.444M1.778 30.222 30.222 1.778"/></symbol>
<symbol id="currency" viewBox="0 0 32 32"><path d="M6.545 2.182a4.364 4.364 0 0 0-4.364 4.364v18.909a4.364 4.364 0 0 0 4.364 4.364h18.909a4.364 4.364 0 0 0 4.364-4.364V6.546a4.364 4.364 0 0 0-4.364-4.364H6.545zm7.093 11.344c0 .86.661 1.412 2.715 1.946s4.253 1.412 4.253 3.982c0 1.855-1.403 2.878-3.167 3.212v1.946h-2.715v-1.964c-1.737-.371-3.222-1.484-3.33-3.466h1.991c.1 1.068.833 1.9 2.697 1.9 2 0 2.443-.995 2.443-1.62 0-.842-.452-1.638-2.715-2.181-2.525-.606-4.253-1.647-4.253-3.737 0-1.747 1.412-2.887 3.167-3.267V8.322h2.715v1.982c1.891.462 2.841 1.891 2.905 3.448h-2c-.054-1.131-.651-1.9-2.262-1.9-1.529 0-2.443.688-2.443 1.674z"/></symbol>
<symbol id="diagram" viewBox="0 0 32 32"><path d="M6.545 2.182h18.909a4.364 4.364 0 0 1 4.364 4.364v18.909a4.364 4.364 0 0 1-4.364 4.364H6.545a4.364 4.364 0 0 1-4.364-4.364V6.546a4.364 4.364 0 0 1 4.364-4.364zm17.091 12.04c.933 0 1.697-.8 1.697-1.778s-.764-1.778-1.697-1.778-1.697.8-1.697 1.778c0 .16.017.311.059.453l-3.012 3.164c-.136-.044-.288-.062-.441-.062s-.305.018-.441.062l-2.164-2.267c.042-.142.059-.302.059-.462 0-.978-.764-1.778-1.697-1.778s-1.697.8-1.697 1.778c0 .16.017.32.059.462l-3.869 4.044a1.396 1.396 0 0 0-.433-.062c-.933 0-1.697.8-1.697 1.778s.764 1.778 1.697 1.778 1.697-.8 1.697-1.778c0-.16-.017-.311-.059-.453l3.861-4.053c.136.044.288.062.441.062s.305-.018.441-.062l2.164 2.267a1.653 1.653 0 0 0-.059.462c0 .978.764 1.778 1.697 1.778s1.697-.8 1.697-1.778c0-.16-.017-.32-.059-.462l3.021-3.156c.136.044.28.062.433.062z"/></symbol>
<symbol id="email" viewBox="0 0 32 32"><path d="M26.24 5.76H5.76a2.556 2.556 0 0 0-2.547 2.56L3.2 23.68a2.568 2.568 0 0 0 2.56 2.56h20.48a2.568 2.568 0 0 0 2.56-2.56V8.32a2.568 2.568 0 0 0-2.56-2.56zm0 5.12L16 17.28l-10.24-6.4V8.32L16 14.72l10.24-6.4v2.56z"/></symbol>
<symbol id="home" viewBox="0 0 32 32"><path d="M6.545 2.182a4.364 4.364 0 0 0-4.364 4.364v18.909a4.364 4.364 0 0 0 4.364 4.364h18.909a4.364 4.364 0 0 0 4.364-4.364V6.546a4.364 4.364 0 0 0-4.364-4.364H6.545zm7.225 15.534v5.961H8.8v-7.948H5.818l9.939-8.941 9.939 8.941h-2.982v7.948h-4.97v-5.961h-3.976z"/></symbol>
<symbol id="logout" viewBox="0 0 32 32"><path d="M20.051 23.237h2.499v4.997a3.752 3.752 0 0 1-3.748 3.748H3.748A3.752 3.752 0 0 1 0 28.234V3.748A3.752 3.752 0 0 1 3.748 0h15.054a3.752 3.752 0 0 1 3.748 3.748v4.997h-2.499V3.748a1.25 1.25 0 0 0-1.249-1.249H3.748a1.25 1.25 0 0 0-1.249 1.249v24.486a1.25 1.25 0 0 0 1.249 1.249h15.054a1.25 1.25 0 0 0 1.249-1.249v-4.997zm6.06-13.135-1.767 1.767 2.873 2.874H11.056v2.499h16.161l-2.873 2.873 1.767 1.767L32 15.993l-5.889-5.89z"/></symbol>
<symbol id="minus" viewBox="0 0 32 32"><path fill="#ff6596" d="M25.514 13.405c0 5.254-4.259 9.513-9.514 9.513s-9.514-4.259-9.514-9.514C6.486 8.15 10.745 3.89 16 3.89s9.514 4.259 9.514 9.514z" style="fill:var(--color2, #ff6596)"/><path fill="none" stroke="#fff" stroke-width=".865" d="M11.676 13.405h8.649" style="stroke:var(--color3, #fff)"/></symbol>
<symbol id="name" viewBox="0 0 32 32"><path d="M4.48 7.04v17.92a2.56 2.56 0 0 0 2.56 2.56h17.92a2.568 2.568 0 0 0 2.56-2.56V7.04a2.568 2.568 0 0 0-2.56-2.56H7.04a2.56 2.56 0 0 0-2.56 2.56zm15.36 5.12c0 2.125-1.715 3.84-3.84 3.84s-3.84-1.715-3.84-3.84S13.875 8.32 16 8.32s3.84 1.715 3.84 3.84zM8.32 22.4c0-2.56 5.12-3.968 7.68-3.968s7.68 1.408 7.68 3.968v1.28H8.32V22.4z"/></symbol>
<symbol id="password" viewBox="0 0 32 32"><path d="M23.68 10.88H22.4V8.32c0-3.533-2.867-6.4-6.4-6.4s-6.4 2.867-6.4 6.4v2.56H8.32a2.568 2.568 0 0 0-2.56 2.56v12.8a2.568 2.568 0 0 0 2.56 2.56h15.36a2.568 2.568 0 0 0 2.56-2.56v-12.8a2.568 2.568 0 0 0-2.56-2.56zM16 22.4c-1.408 0-2.56-1.152-2.56-2.56s1.152-2.56 2.56-2.56c1.408 0 2.56 1.152 2.56 2.56S17.408 22.4 16 22.4zm3.968-11.52h-7.936V8.32c0-2.189 1.779-3.968 3.968-3.968s3.968 1.779 3.968 3.968v2.56z"/></symbol>
<symbol id="pen" viewBox="0 0 32 32"><path stroke-linecap="round" stroke-linejoin="round" stroke-width="2.743" d="m24 13.334-5.333-5.333M3.333 28.667l4.513-.502c.551-.061.827-.092 1.085-.175.229-.074.446-.178.647-.311.226-.149.422-.345.814-.737L28 9.334a3.77 3.77 0 1 0-5.333-5.333L5.059 21.609c-.392.392-.588.588-.737.814a2.68 2.68 0 0 0-.311.647c-.083.258-.114.533-.175 1.085l-.501 4.513z"/></symbol>
<symbol id="plus" viewBox="0 0 32 32"><path fill="#24cca7" d="M25.514 13.405c0 5.254-4.259 9.513-9.514 9.513s-9.514-4.259-9.514-9.514C6.486 8.15 10.745 3.89 16 3.89s9.514 4.259 9.514 9.514z" style="fill:var(--color4, #24cca7)"/><path fill="none" stroke="#fff" stroke-width=".865" d="M16 9.081v8.649M11.676 13.405h8.649" style="stroke:var(--color3, #fff)"/></symbol>
<symbol id="wallet" viewBox="0 0 32 32"><path fill="#24cca7" d="m3.755 7.619 16.213-4.538-.859-1.779C18.546.146 17.176-.331 16.048.245L1.536 7.619h2.219zm21.058-4.572c-.195 0-.39.029-.586.087L9.216 7.618h18.431l-.693-2.779c-.266-1.084-1.163-1.792-2.14-1.792z" style="fill:var(--color4, #24cca7)"/><path fill="#4a56e2" d="M28.359 8.573H1.796c-.821 0-1.514.55-1.729 1.303l-.003.013a1.9 1.9 0 0 0-.064.467v19.863A1.79 1.79 0 0 0 1.796 32h26.56a1.79 1.79 0 0 0 1.796-1.782v-4.974H19.491c-1.685 0-3.055-1.358-3.055-3.029v-3.967c0-.819.331-1.565.866-2.11a3.027 3.027 0 0 1 2.174-.917h10.677v-4.864a1.785 1.785 0 0 0-1.786-1.781h-.007z" style="fill:var(--color1, #4a56e2)"/><path fill="#4a56e2" d="M31.413 16.926a1.787 1.787 0 0 0-1.208-.467H19.491c-.992 0-1.797.8-1.797 1.783v3.968a1.79 1.79 0 0 0 1.797 1.781h10.713c.205 0 .398-.035.581-.096.238-.078.449-.206.629-.37A1.77 1.77 0 0 0 32 22.21v-3.968c0-.521-.226-.992-.587-1.316zm-8.17 3.654a.896.896 0 0 1-.896.892h-.601a.896.896 0 0 1-.896-.892v-.592a.87.87 0 0 1 .346-.699.909.909 0 0 1 .552-.192h.6c.493 0 .893.398.896.89v.592z" style="fill:var(--color1, #4a56e2)"/></symbol>
<symbol id="waveDesktop" viewBox="0 0 83 32"><path d="M6.648 11.418 0 18.321v8.903A4.776 4.776 0 0 0 4.776 32H75.94a7.163 7.163 0 0 0 7.164-7.164V5.974c-.303-.188-.744-.251-.931-.266-1.457-.115-2.293.978-3.457 1.991l-.015.013c-.344.3-1.205 1.049-2.778 1.049-1.596 0-2.704-.708-3.058-1.062l-5.319-5.575C66.837 1.416 65.286 0 63.557 0s-3.103 1.416-3.723 2.124L35.235 25.888c-.399.442-1.622 1.328-3.324 1.328s-2.925-.885-3.324-1.328L14.36 10.754c-.488-.531-1.915-1.593-3.723-1.593s-3.413 1.505-3.989 2.257z"/></symbol>
<symbol id="waveMobile" viewBox="0 0 96 32"><path d="M7.708 13.27 0 21.292v3.826A6.882 6.882 0 0 0 6.882 32h79.14c5.701 0 10.323-4.622 10.323-10.323V6.942c-.351-.218-.862-.291-1.079-.309-1.689-.133-2.658 1.137-4.008 2.314l-.017.015c-.399.348-1.397 1.22-3.22 1.22-1.85 0-3.134-.823-3.545-1.234l-6.166-6.48C77.488 1.645 75.689 0 73.685 0s-3.597 1.646-4.316 2.468L40.851 30.085c-.462.514-1.881 1.543-3.854 1.543s-3.391-1.029-3.854-1.543L16.649 12.497c-.565-.617-2.22-1.851-4.316-1.851s-3.957 1.748-4.625 2.623z"/></symbol>
<symbol id="waveTablet" viewBox="0 0 96 32"><path d="M7.703 13.27 0 21.292v4.942A5.766 5.766 0 0 0 5.766 32H87.64a8.649 8.649 0 0 0 8.649-8.649V6.942c-.351-.218-.862-.291-1.079-.309-1.689-.133-2.657 1.137-4.005 2.314l-.017.015c-.399.348-1.396 1.22-3.219 1.22-1.849 0-3.133-.823-3.543-1.234l-6.162-6.48C77.442 1.645 75.645 0 73.642 0s-3.595 1.646-4.314 2.468L40.827 30.085c-.462.514-1.88 1.543-3.852 1.543s-3.389-1.028-3.852-1.543L16.638 12.497c-.565-.617-2.219-1.851-4.314-1.851s-3.954 1.748-4.622 2.623z"/></symbol>
<symbol id="google" viewBox="0 0 32 32"><path fill="#ffc107" d="M29.074 13.389H28v-.055H16v5.333h7.535C22.436 21.772 19.482 24 16 24a8 8 0 0 1 0-16c2.039 0 3.895.769 5.307 2.026l3.771-3.771a13.274 13.274 0 0 0-9.079-3.588C8.636 2.667 2.666 8.637 2.666 16s5.97 13.333 13.333 13.333S29.332 23.363 29.332 16c0-.894-.092-1.767-.259-2.611z" style="fill:var(--color5, #ffc107)"/><path fill="#ff3d00" d="m4.204 9.794 4.381 3.213A7.996 7.996 0 0 1 16 8c2.039 0 3.895.769 5.307 2.026l3.771-3.771a13.274 13.274 0 0 0-9.079-3.588c-5.121 0-9.563 2.891-11.796 7.127z" style="fill:var(--color6, #ff3d00)"/><path fill="#4caf50" d="M16 29.333c3.444 0 6.573-1.318 8.939-3.461l-4.127-3.492A7.942 7.942 0 0 1 15.999 24c-3.468 0-6.413-2.211-7.522-5.297l-4.348 3.35c2.207 4.318 6.688 7.281 11.87 7.281z" style="fill:var(--color7, #4caf50)"/><path fill="#1976d2" d="M29.074 13.389H28v-.055H16v5.333h7.535a8.026 8.026 0 0 1-2.725 3.714l.002-.001 4.127 3.492c-.292.265 4.394-3.205 4.394-9.871 0-.894-.092-1.767-.259-2.611z" style="fill:var(--color8, #1976d2)"/></symbol>
<symbol id="react" viewBox="0 0 36 32"><path fill="#00d8ff" d="M29.542 10.361a14.47 14.47 0 0 0-.986-.321l-.17-.043c.065-.267.125-.53.179-.789.875-4.25.303-7.674-1.652-8.801-1.874-1.081-4.94.046-8.036 2.74-.326.285-.617.553-.902.827l.007-.007a21.438 21.438 0 0 0-.574-.531l-.021-.019C14.142.536 10.89-.678 8.937.452 7.064 1.536 6.51 4.755 7.298 8.783c.108.559.2.96.302 1.357l-.036-.166c-.46.131-.905.27-1.33.418C2.43 11.718.001 13.797.001 15.953c0 2.227 2.608 4.46 6.57 5.814.177.068.5.172.827.268l.144.036a16.84 16.84 0 0 0-.258 1.134l-.024.149c-.751 3.958-.165 7.101 1.703 8.178 1.929 1.112 5.167-.031 8.319-2.787.272-.239.516-.465.755-.696l-.005.005c.301.291.618.58.942.861l.03.025c3.054 2.628 6.07 3.689 7.935 2.609 1.927-1.116 2.554-4.492 1.74-8.599a18.267 18.267 0 0 0-.246-1.101l.031.141c.227-.067.451-.137.668-.209 4.119-1.365 6.799-3.571 6.799-5.827 0-2.164-2.508-4.256-6.388-5.592zm-.894 9.963c-.197.065-.398.128-.604.189-.455-1.44-1.068-2.97-1.819-4.552a35.967 35.967 0 0 0 1.749-4.485c.368.106.724.219 1.068.337 3.325 1.145 5.353 2.837 5.353 4.141 0 1.389-2.19 3.192-5.747 4.371zm-1.475 2.924c.36 1.816.411 3.458.173 4.742-.214 1.154-.644 1.923-1.176 2.231-1.132.655-3.554-.197-6.165-2.444a21.855 21.855 0 0 1-.91-.83l.006.006a36.105 36.105 0 0 0 3.012-3.824 35.802 35.802 0 0 0 4.866-.75c.046.16.113.453.174.748l.021.121zm-14.924 6.859c-1.106.391-1.987.402-2.52.095-1.133-.654-1.604-3.177-.962-6.562.103-.546.194-.948.295-1.345l-.033.153c1.472.326 3.101.56 4.842.701a37.365 37.365 0 0 0 3.084 3.811c-.213.206-.436.412-.663.612l-.021.018c-1.394 1.219-2.791 2.083-4.022 2.518zm-5.182-9.792c-1.752-.599-3.199-1.377-4.191-2.226-.891-.763-1.341-1.521-1.341-2.136 0-1.308 1.95-2.977 5.204-4.111.395-.138.808-.267 1.237-.389a36.833 36.833 0 0 0 1.751 4.538 37.41 37.41 0 0 0-1.773 4.602 15.966 15.966 0 0 1-1.019-.318l.133.04zM8.804 8.489c-.675-3.451-.227-6.054.902-6.707 1.202-.696 3.86.296 6.662 2.784.198.177.374.339.546.504l-.007-.007a36.82 36.82 0 0 0-3.061 3.788 37.59 37.59 0 0 0-4.795.745 14.982 14.982 0 0 1-.223-.963l-.024-.144zm15.499 3.827a42.373 42.373 0 0 0-1.209-1.989l.116.192c1.146.145 2.245.337 3.276.573-.31.993-.696 2.03-1.15 3.094a45.11 45.11 0 0 0-1.17-2.121l.136.251zM17.982 6.16a32.735 32.735 0 0 1 2.114 2.552 46.613 46.613 0 0 0-4.35.003l.104-.004a33.796 33.796 0 0 1 2.132-2.552zm-6.361 6.167c-.235.385-.572.993-.895 1.609l-.119.249a34.017 34.017 0 0 1-1.142-3.109 34.661 34.661 0 0 1 3.257-.559c-.271.406-.635.997-.986 1.597l-.115.213zm1.135 9.172a32.603 32.603 0 0 1-3.311-.532 34.164 34.164 0 0 1 1.165-3.172c.443.863.782 1.472 1.134 2.071l-.115-.212c.364.629.741 1.245 1.128 1.845zm5.269 4.355a34.408 34.408 0 0 1-2.162-2.587c.688.027 1.389.041 2.102.041.732 0 1.456-.016 2.169-.048a32.88 32.88 0 0 1-2.109 2.595zm7.326-8.114a32.55 32.55 0 0 1 1.206 3.161 32.433 32.433 0 0 1-3.352.571c.247-.373.612-.97.966-1.574l.137-.254c.235-.384.581-1.007.914-1.638l.128-.266zm-2.372 1.137a47.53 47.53 0 0 1-1.838 2.961l.114-.18c-.977.074-2.117.116-3.266.116h-.026.001c-1.118 0-2.206-.035-3.253-.103a39.87 39.87 0 0 1-1.645-2.581l-.111-.205a37.39 37.39 0 0 1-1.42-2.641l-.113-.254a40.92 40.92 0 0 1 1.64-3.102l-.111.206a41.578 41.578 0 0 1 1.837-2.918l-.094.145a43.434 43.434 0 0 1 6.55.001c.5.722 1.072 1.624 1.613 2.547l.118.218a41.8 41.8 0 0 1 1.417 2.595l.132.288a43.366 43.366 0 0 1-1.662 3.127l.118-.218zm3.166-17.141c1.203.694 1.671 3.492.915 7.162a19.43 19.43 0 0 1-.161.714c-1.491-.344-3.11-.6-4.804-.759a36.055 36.055 0 0 0-3.037-3.791c.256-.247.525-.495.8-.736l.026-.022c2.653-2.308 5.132-3.22 6.261-2.568zm-8.18 11.009a3.208 3.208 0 1 1 0 6.417 3.208 3.208 0 0 1 0-6.417z" style="fill:var(--color9, #00d8ff)"/></symbol>
</defs></svg>